<svg width="17" height="17" viewBox="0 0 17 17" fill="none" xmlns="http://www.w3.org/2000/svg">
<circle cx="8.5" cy="8.5" r="8.5" fill="#FFA300"/>
<g clip-path="url(#clip0_1155_557)">
<path d="M12.7791 5.4254C12.3796 5.4254 12.056 5.77771 12.056 6.2111C12.056 6.49303 12.1925 6.73847 12.398 6.87794C11.9638 7.52976 11.351 8.28671 10.7194 8.506C9.88816 8.79478 9.11321 7.01998 8.73172 5.96522C9.0145 5.8588 9.22047 5.5683 9.22047 5.22373C9.22047 4.79034 8.89735 4.43845 8.49914 4.43845C8.10178 4.43845 7.77824 4.79032 7.77824 5.22373C7.77824 5.5683 7.98377 5.85838 8.26699 5.96522C7.88638 7.01998 7.11225 8.79478 6.27979 8.506C5.649 8.28671 5.03493 7.52976 4.60154 6.87794C4.80622 6.73849 4.94311 6.49347 4.94311 6.2111C4.94311 5.77771 4.61913 5.4254 4.22091 5.4254C3.82354 5.4254 3.5 5.77771 3.5 6.2111C3.5 6.64579 3.82354 6.99766 4.22091 6.99766C4.22906 6.99766 4.23463 6.99551 4.24237 6.99465L5.21646 11.5196H11.7831L12.7576 6.99465C12.7645 6.99509 12.7714 6.99766 12.7795 6.99766C13.1765 6.99766 13.5 6.64579 13.5 6.2111C13.4996 5.77771 13.176 5.4254 12.7791 5.4254Z" fill="white"/>
<path d="M11.7496 11.6788H5.24948V12.5615H11.7496V11.6788Z" fill="white"/>
</g>
<defs>
<clipPath id="clip0_1155_557">
<rect width="10" height="10" fill="white" transform="translate(3.5 3.5)"/>
</clipPath>
</defs>
</svg>
